# xmcd CD database file
# Copyright (C) 1995-1998 Ti Kan
#
# Track frame offsets:
#	187
#	20212
#	39862
#	58312
#	73762
#	91537
#	108862
#	124462
#	139912
#	163387
#
# Disc length: 2494 seconds
#
# Revision: 1
# Processed by: cddbd v1.4b41PL2 Copyright (c) Steve Scherf et al.
# Submitted via: CDex 1.30
#
DISCID=9009bc0a
DTITLE=MTV - CocaCola - Cherry Coke Mix
DYEAR=1998
DGENRE=Blues
TTITLE0=Cherry Coke
TTITLE1=N-Trance
TTITLE2=Dj Bobo
TTITLE3=Friction
TTITLE4=Kika
TTITLE5=Twenty 4 Seven
TTITLE6=2 Brothers On The 4th Floor
TTITLE7=Audio Murphy
TTITLE8=Kike Boy and Demolition
TTITLE9=Ku Minerva
EXTD=YEAR: 1998  ID3G:   0
EXTT0=
EXTT1=
EXTT2=
EXTT3=
EXTT4=
EXTT5=
EXTT6=
EXTT7=
EXTT8=
EXTT9=
PLAYORDER=
